<svg xmlns="http://www.w3.org/2000/svg" xmlns:xlink="http://www.w3.org/1999/xlink" contentScriptType="text/ecmascript" zoomAndPan="magnify" contentStyleType="text/css" preserveAspectRatio="xMidYMid meet" version="1.0" viewBox="149.28 90 111.68 118.56"><defs><clipPath id="clip-0"><path d="M 149.28125 90 L 260.964844 90 L 260.964844 208.558594 L 149.28125 208.558594 Z M 149.28125 90 " clip-rule="nonzero"/></clipPath></defs><g clip-path="url(#clip-0)"><path fill="rgb(100%, 100%, 100%)" d="M 252.839844 141.628906 C 254.117188 140.453125 255.261719 139.15625 256.273438 137.742188 C 257.285156 136.328125 258.136719 134.824219 258.839844 133.234375 C 259.539062 131.644531 260.066406 129.996094 260.425781 128.296875 C 260.78125 126.59375 260.964844 124.875 260.964844 123.136719 C 260.964844 109.304688 249.703125 98.046875 235.875 98.046875 C 234.132812 98.046875 232.40625 98.226562 230.703125 98.585938 C 230.367188 98.207031 230.019531 97.84375 229.660156 97.484375 C 229.304688 97.128906 228.933594 96.785156 228.554688 96.453125 C 228.179688 96.117188 227.789062 95.796875 227.390625 95.488281 C 226.992188 95.175781 226.585938 94.878906 226.171875 94.59375 C 225.753906 94.308594 225.328125 94.035156 224.898438 93.777344 C 224.464844 93.515625 224.023438 93.269531 223.578125 93.035156 C 223.128906 92.800781 222.675781 92.582031 222.214844 92.378906 C 221.753906 92.171875 221.289062 91.980469 220.816406 91.800781 C 220.34375 91.625 219.867188 91.460938 219.386719 91.3125 C 218.902344 91.164062 218.417969 91.027344 217.925781 90.910156 C 217.4375 90.789062 216.945312 90.683594 216.445312 90.59375 C 215.949219 90.503906 215.453125 90.429688 214.949219 90.371094 C 214.449219 90.3125 213.949219 90.265625 213.445312 90.238281 C 212.941406 90.207031 212.4375 90.195312 211.933594 90.195312 C 211.425781 90.195312 210.921875 90.210938 210.417969 90.242188 C 209.917969 90.273438 209.414062 90.320312 208.914062 90.382812 C 208.414062 90.445312 207.914062 90.523438 207.417969 90.613281 C 206.921875 90.707031 206.429688 90.8125 205.941406 90.933594 C 205.449219 91.054688 204.964844 91.191406 204.484375 91.34375 C 204.003906 91.496094 203.527344 91.660156 203.054688 91.839844 C 202.582031 92.019531 202.117188 92.214844 201.65625 92.421875 C 201.199219 92.628906 200.746094 92.851562 200.296875 93.085938 C 199.851562 93.320312 199.414062 93.570312 198.980469 93.832031 C 198.550781 94.09375 198.128906 94.367188 197.710938 94.65625 C 197.296875 94.941406 196.890625 95.242188 196.496094 95.554688 C 196.097656 95.863281 195.710938 96.1875 195.335938 96.523438 C 194.957031 96.859375 194.589844 97.203125 194.234375 97.5625 C 193.878906 97.917969 193.53125 98.289062 193.199219 98.664062 C 192.863281 99.042969 192.542969 99.429688 192.230469 99.828125 C 191.921875 100.226562 191.621094 100.632812 191.335938 101.046875 C 191.050781 101.464844 190.777344 101.886719 190.515625 102.320312 C 190.253906 102.753906 190.007812 103.191406 189.773438 103.640625 C 188.6875 103.476562 187.597656 103.398438 186.503906 103.394531 C 185.316406 103.390625 184.136719 103.480469 182.96875 103.671875 C 181.796875 103.859375 180.648438 104.144531 179.527344 104.523438 C 178.402344 104.902344 177.316406 105.371094 176.269531 105.925781 C 175.222656 106.484375 174.230469 107.125 173.289062 107.84375 C 172.347656 108.566406 171.46875 109.359375 170.660156 110.226562 C 169.847656 111.089844 169.113281 112.019531 168.457031 113.003906 C 167.796875 113.992188 167.226562 115.027344 166.738281 116.105469 C 166.25 117.1875 165.855469 118.300781 165.550781 119.449219 C 157.726562 119.691406 151.429688 126.125 151.429688 134.011719 C 151.425781 134.765625 151.480469 135.515625 151.59375 136.257812 C 151.707031 137.003906 151.878906 137.734375 152.105469 138.453125 C 152.332031 139.167969 152.613281 139.863281 152.949219 140.539062 C 153.285156 141.210938 153.667969 141.855469 154.105469 142.46875 C 154.539062 143.082031 155.019531 143.660156 155.546875 144.199219 C 156.070312 144.738281 156.636719 145.234375 157.238281 145.683594 C 157.839844 146.132812 158.476562 146.535156 159.140625 146.886719 C 159.804688 147.242188 160.492188 147.539062 161.207031 147.785156 C 163.804688 150.199219 167.953125 152.875 173.664062 152.875 L 234.632812 152.875 L 234.972656 152.765625 C 235.386719 152.640625 245.308594 149.613281 252.839844 141.628906 Z M 249.324219 138.199219 C 243.417969 144.511719 235.546875 147.40625 233.886719 147.964844 L 173.664062 147.964844 C 169.285156 147.964844 166.109375 145.746094 164.21875 143.878906 L 163.792969 143.449219 L 163.207031 143.277344 C 162.652344 143.113281 162.121094 142.902344 161.605469 142.640625 C 161.089844 142.382812 160.605469 142.078125 160.144531 141.730469 C 159.683594 141.382812 159.257812 140.996094 158.867188 140.574219 C 158.476562 140.148438 158.125 139.695312 157.816406 139.207031 C 157.507812 138.722656 157.242188 138.210938 157.023438 137.679688 C 156.804688 137.144531 156.636719 136.59375 156.515625 136.03125 C 156.394531 135.46875 156.324219 134.898438 156.308594 134.320312 C 156.289062 133.746094 156.320312 133.171875 156.40625 132.601562 C 156.488281 132.03125 156.625 131.472656 156.808594 130.925781 C 156.992188 130.378906 157.222656 129.851562 157.5 129.347656 C 157.78125 128.84375 158.101562 128.367188 158.464844 127.917969 C 158.828125 127.46875 159.226562 127.058594 159.664062 126.683594 C 160.101562 126.304688 160.570312 125.972656 161.066406 125.679688 C 161.5625 125.386719 162.082031 125.140625 162.621094 124.941406 C 163.164062 124.742188 163.71875 124.59375 164.285156 124.492188 C 164.851562 124.390625 165.425781 124.34375 166 124.34375 C 166.40625 124.34375 166.808594 124.371094 167.210938 124.417969 L 169.550781 124.710938 L 169.929688 122.378906 C 170.023438 121.808594 170.148438 121.246094 170.296875 120.691406 C 170.449219 120.132812 170.628906 119.585938 170.839844 119.046875 C 171.046875 118.507812 171.28125 117.984375 171.542969 117.46875 C 171.804688 116.957031 172.09375 116.457031 172.40625 115.972656 C 172.722656 115.488281 173.058594 115.023438 173.421875 114.570312 C 173.78125 114.121094 174.164062 113.691406 174.570312 113.285156 C 174.976562 112.875 175.402344 112.484375 175.847656 112.121094 C 176.292969 111.753906 176.757812 111.410156 177.238281 111.09375 C 177.71875 110.773438 178.214844 110.480469 178.726562 110.214844 C 179.238281 109.949219 179.761719 109.707031 180.296875 109.492188 C 180.832031 109.28125 181.378906 109.09375 181.933594 108.9375 C 182.488281 108.78125 183.050781 108.652344 183.617188 108.554688 C 184.1875 108.453125 184.757812 108.382812 185.332031 108.34375 C 185.910156 108.304688 186.484375 108.292969 187.0625 108.3125 C 187.636719 108.332031 188.210938 108.378906 188.78125 108.457031 C 189.355469 108.535156 189.921875 108.640625 190.480469 108.777344 C 196.8125 110.660156 201.476562 116.675781 201.476562 123.613281 C 201.476562 125.292969 201.203125 126.929688 200.65625 128.519531 L 204.671875 132 C 205.382812 131.023438 206.195312 130.140625 207.109375 129.359375 C 208.027344 128.574219 209.023438 127.90625 210.097656 127.359375 C 211.171875 126.808594 212.292969 126.394531 213.464844 126.113281 C 214.640625 125.828125 215.828125 125.6875 217.035156 125.6875 C 224.84375 125.6875 231.289062 131.570312 232.226562 139.128906 L 237.195312 139.128906 C 236.242188 128.835938 227.566406 120.753906 217.035156 120.753906 C 215.15625 120.753906 213.3125 121.011719 211.507812 121.53125 C 209.699219 122.046875 208 122.800781 206.40625 123.792969 C 206.40625 123.734375 206.417969 123.671875 206.417969 123.613281 C 206.417969 115.417969 201.523438 108.363281 194.519531 105.175781 C 194.929688 104.464844 195.382812 103.78125 195.878906 103.125 C 196.375 102.46875 196.90625 101.84375 197.476562 101.25 C 198.046875 100.660156 198.652344 100.105469 199.292969 99.589844 C 199.929688 99.070312 200.597656 98.59375 201.296875 98.160156 C 201.992188 97.722656 202.714844 97.332031 203.460938 96.984375 C 204.203125 96.636719 204.96875 96.335938 205.75 96.082031 C 206.53125 95.824219 207.324219 95.621094 208.132812 95.464844 C 208.9375 95.304688 209.753906 95.199219 210.574219 95.140625 C 211.394531 95.082031 212.214844 95.074219 213.035156 95.117188 C 213.855469 95.160156 214.671875 95.253906 215.480469 95.398438 C 216.289062 95.539062 217.085938 95.730469 217.875 95.96875 C 218.660156 96.210938 219.429688 96.496094 220.179688 96.832031 C 220.929688 97.164062 221.660156 97.542969 222.363281 97.96875 C 223.070312 98.390625 223.746094 98.855469 224.394531 99.359375 C 225.042969 99.867188 225.65625 100.410156 226.238281 100.992188 C 226.820312 101.570312 227.363281 102.1875 227.871094 102.832031 L 228.882812 104.113281 L 230.457031 103.675781 C 232.230469 103.183594 234.035156 102.933594 235.875 102.929688 C 247.003906 102.929688 256.058594 111.988281 256.058594 123.125 C 256.058594 124.527344 255.914062 125.917969 255.621094 127.292969 C 255.332031 128.667969 254.902344 129.996094 254.335938 131.28125 C 253.769531 132.566406 253.074219 133.78125 252.253906 134.921875 C 251.4375 136.0625 250.507812 137.105469 249.46875 138.054688 Z M 180.730469 163.191406 L 170.371094 173.554688 C 170.15625 173.769531 169.910156 173.933594 169.632812 174.046875 C 169.351562 174.160156 169.0625 174.21875 168.761719 174.21875 C 168.460938 174.21875 168.167969 174.160156 167.890625 174.042969 C 167.613281 173.925781 167.367188 173.761719 167.152344 173.550781 C 166.941406 173.335938 166.777344 173.089844 166.664062 172.808594 C 166.546875 172.53125 166.492188 172.242188 166.492188 171.9375 C 166.492188 171.636719 166.550781 171.347656 166.667969 171.070312 C 166.78125 170.789062 166.945312 170.542969 167.160156 170.332031 L 177.519531 159.980469 C 177.734375 159.773438 177.980469 159.613281 178.257812 159.503906 C 178.53125 159.394531 178.820312 159.339844 179.117188 159.34375 C 179.414062 159.347656 179.699219 159.40625 179.972656 159.519531 C 180.25 159.636719 180.492188 159.796875 180.699219 160.007812 C 180.910156 160.21875 181.074219 160.460938 181.1875 160.734375 C 181.304688 161.011719 181.363281 161.296875 181.367188 161.59375 C 181.367188 161.890625 181.316406 162.179688 181.203125 162.453125 C 181.09375 162.730469 180.9375 162.976562 180.730469 163.191406 Z M 163.730469 159.980469 C 163.945312 160.191406 164.109375 160.4375 164.226562 160.714844 C 164.34375 160.992188 164.402344 161.285156 164.402344 161.585938 C 164.402344 161.886719 164.34375 162.175781 164.226562 162.453125 C 164.109375 162.734375 163.945312 162.976562 163.730469 163.191406 L 153.382812 173.554688 C 153.167969 173.765625 152.921875 173.929688 152.644531 174.042969 C 152.363281 174.160156 152.074219 174.214844 151.773438 174.214844 C 151.472656 174.214844 151.179688 174.160156 150.902344 174.042969 C 150.621094 173.929688 150.375 173.765625 150.160156 173.554688 C 149.949219 173.339844 149.785156 173.09375 149.671875 172.8125 C 149.558594 172.535156 149.5 172.246094 149.5 171.945312 C 149.5 171.640625 149.558594 171.351562 149.671875 171.074219 C 149.785156 170.792969 149.949219 170.546875 150.160156 170.332031 L 160.523438 159.980469 C 160.734375 159.765625 160.980469 159.601562 161.257812 159.484375 C 161.535156 159.367188 161.824219 159.308594 162.125 159.308594 C 162.429688 159.308594 162.71875 159.367188 162.996094 159.484375 C 163.273438 159.601562 163.519531 159.765625 163.730469 159.980469 Z M 232.824219 159.980469 C 233.039062 160.191406 233.203125 160.4375 233.320312 160.714844 C 233.4375 160.992188 233.496094 161.28125 233.496094 161.582031 C 233.496094 161.882812 233.441406 162.171875 233.328125 162.453125 C 233.210938 162.730469 233.050781 162.976562 232.835938 163.191406 L 222.476562 173.554688 C 222.261719 173.765625 222.015625 173.929688 221.738281 174.046875 C 221.460938 174.160156 221.167969 174.214844 220.867188 174.214844 C 220.566406 174.214844 220.277344 174.15625 220 174.039062 C 219.722656 173.925781 219.476562 173.761719 219.265625 173.546875 C 219.050781 173.332031 218.886719 173.085938 218.773438 172.808594 C 218.65625 172.53125 218.601562 172.238281 218.601562 171.9375 C 218.601562 171.636719 218.660156 171.347656 218.773438 171.070312 C 218.890625 170.789062 219.054688 170.546875 219.265625 170.332031 L 229.617188 159.980469 C 229.828125 159.765625 230.074219 159.601562 230.351562 159.484375 C 230.628906 159.367188 230.917969 159.308594 231.21875 159.308594 C 231.523438 159.308594 231.8125 159.367188 232.089844 159.484375 C 232.367188 159.601562 232.613281 159.765625 232.824219 159.980469 Z M 247.910156 159.980469 C 248.121094 160.191406 248.289062 160.4375 248.402344 160.714844 C 248.519531 160.992188 248.578125 161.285156 248.578125 161.585938 C 248.578125 161.886719 248.519531 162.175781 248.402344 162.453125 C 248.289062 162.734375 248.121094 162.976562 247.910156 163.191406 L 237.558594 173.554688 C 237.347656 173.765625 237.101562 173.929688 236.820312 174.046875 C 236.542969 174.160156 236.253906 174.214844 235.953125 174.214844 C 235.652344 174.214844 235.359375 174.15625 235.082031 174.039062 C 234.804688 173.925781 234.558594 173.761719 234.347656 173.546875 C 234.132812 173.332031 233.96875 173.085938 233.855469 172.808594 C 233.742188 172.53125 233.683594 172.238281 233.683594 171.9375 C 233.683594 171.636719 233.742188 171.347656 233.859375 171.070312 C 233.972656 170.789062 234.136719 170.546875 234.351562 170.332031 L 244.699219 159.980469 C 244.910156 159.765625 245.15625 159.601562 245.433594 159.484375 C 245.710938 159.367188 246.003906 159.308594 246.304688 159.308594 C 246.605469 159.308594 246.894531 159.367188 247.171875 159.484375 C 247.449219 159.601562 247.695312 159.765625 247.910156 159.980469 Z M 175.410156 208.554688 L 192.703125 183.457031 L 173.882812 183.457031 L 194.445312 160.101562 L 213.117188 160.101562 L 200.132812 174.691406 L 214.289062 174.691406 Z M 175.410156 208.554688 " fill-opacity="1" fill-rule="nonzero" data-darkreader-inline-fill="" style="--darkreader-inline-fill:#181a1b;"/></g></svg>