<svg xmlns="http://www.w3.org/2000/svg" xmlns:xlink="http://www.w3.org/1999/xlink" contentScriptType="text/ecmascript" zoomAndPan="magnify" contentStyleType="text/css" preserveAspectRatio="xMidYMid meet" version="1.0" viewBox="45 45 60 60"><path fill="rgb(100%, 100%, 100%)" d="M 83.65625 70 C 83.625 69.941406 83.574219 69.90625 83.53125 69.859375 C 81.78125 66.960938 78.628906 65 75 65 C 71.375 65 68.226562 66.957031 66.472656 69.851562 C 66.429688 69.902344 66.375 69.941406 66.339844 70 C 66.296875 70.078125 66.285156 70.164062 66.257812 70.242188 C 65.484375 71.664062 65 73.269531 65 75 C 65 76.726562 65.480469 78.328125 66.253906 79.746094 C 66.28125 79.828125 66.292969 79.921875 66.335938 80 C 66.363281 80.050781 66.417969 80.070312 66.453125 80.113281 C 68.203125 83.027344 71.359375 85 75 85 C 78.640625 85 81.800781 83.023438 83.550781 80.109375 C 83.582031 80.066406 83.632812 80.046875 83.660156 80 C 83.703125 79.921875 83.714844 79.835938 83.742188 79.757812 C 84.515625 78.335938 85 76.730469 85 75 C 85 73.265625 84.515625 71.65625 83.734375 70.234375 C 83.710938 70.15625 83.699219 70.074219 83.65625 70 Z M 76.25 67.628906 C 78.054688 67.933594 79.621094 68.886719 80.746094 70.238281 L 78.5625 71.5 C 77.9375 70.863281 77.140625 70.410156 76.25 70.175781 Z M 73.75 67.628906 L 73.75 70.175781 C 72.859375 70.40625 72.0625 70.863281 71.4375 71.5 L 69.253906 70.238281 C 70.378906 68.886719 71.945312 67.933594 73.75 67.628906 Z M 67.992188 77.601562 C 67.691406 76.789062 67.5 75.917969 67.5 75 C 67.5 74.082031 67.691406 73.210938 67.992188 72.398438 L 70.199219 73.671875 C 70.082031 74.097656 70 74.539062 70 75 C 70 75.460938 70.082031 75.898438 70.199219 76.324219 Z M 73.75 82.371094 C 71.945312 82.066406 70.375 81.113281 69.253906 79.761719 L 71.4375 78.5 C 72.0625 79.136719 72.859375 79.59375 73.75 79.824219 Z M 72.5 75 C 72.5 73.621094 73.621094 72.5 75 72.5 C 76.378906 72.5 77.5 73.621094 77.5 75 C 77.5 76.378906 76.378906 77.5 75 77.5 C 73.621094 77.5 72.5 76.378906 72.5 75 Z M 76.25 82.371094 L 76.25 79.824219 C 77.140625 79.59375 77.9375 79.136719 78.5625 78.5 L 80.746094 79.761719 C 79.621094 81.113281 78.054688 82.066406 76.25 82.371094 Z M 82.007812 77.601562 L 79.796875 76.328125 C 79.917969 75.902344 80 75.460938 80 75 C 80 74.539062 79.917969 74.097656 79.796875 73.671875 L 82.003906 72.398438 C 82.308594 73.210938 82.5 74.078125 82.5 75 C 82.5 75.917969 82.308594 76.789062 82.007812 77.601562 Z M 103.726562 67.101562 L 102.496094 46.175781 C 102.457031 45.515625 101.914062 45 101.25 45 C 100.585938 45 100.042969 45.515625 100.003906 46.175781 L 98.773438 67.101562 C 98.28125 68.191406 97.984375 69.566406 97.796875 70.863281 L 88.039062 67.613281 C 85.457031 63.074219 80.585938 60 75 60 C 69.414062 60 64.542969 63.074219 61.960938 67.613281 L 52.203125 70.863281 C 52.015625 69.566406 51.71875 68.191406 51.226562 67.101562 L 49.996094 46.175781 C 49.957031 45.515625 49.414062 45 48.75 45 C 48.085938 45 47.542969 45.515625 47.503906 46.175781 L 46.273438 67.101562 C 45.050781 69.820312 45 74.296875 45 75 C 45 75.703125 45.050781 80.179688 46.273438 82.898438 L 47.503906 103.824219 C 47.542969 104.484375 48.085938 105 48.75 105 C 49.414062 105 49.957031 104.484375 49.996094 103.824219 L 51.226562 82.898438 C 51.71875 81.808594 52.015625 80.433594 52.199219 79.136719 L 61.957031 82.386719 C 64.542969 86.925781 69.414062 90 75 90 C 80.585938 90 85.457031 86.925781 88.039062 82.386719 L 97.796875 79.136719 C 97.984375 80.433594 98.28125 81.808594 98.773438 82.898438 L 100.003906 103.824219 C 100.042969 104.484375 100.585938 105 101.25 105 C 101.914062 105 102.457031 104.484375 102.496094 103.824219 L 103.726562 82.898438 C 104.949219 80.179688 105 75.703125 105 75 C 105 74.296875 104.949219 69.820312 103.726562 67.101562 Z M 48.984375 81.816406 C 48.917969 81.914062 48.871094 82.015625 48.832031 82.128906 C 48.804688 82.179688 48.773438 82.246094 48.75 82.289062 C 48.722656 82.242188 48.691406 82.175781 48.664062 82.121094 C 48.628906 82.015625 48.582031 81.914062 48.519531 81.824219 C 48.039062 80.699219 47.5 78.371094 47.5 75 C 47.5 71.632812 48.039062 69.308594 48.519531 68.179688 C 48.585938 68.085938 48.628906 67.988281 48.664062 67.878906 C 48.691406 67.824219 48.722656 67.757812 48.75 67.710938 C 48.773438 67.753906 48.800781 67.816406 48.828125 67.863281 C 48.863281 67.984375 48.917969 68.09375 48.988281 68.195312 C 49.46875 69.324219 50 71.644531 50 75 C 50 78.363281 49.460938 80.6875 48.984375 81.816406 Z M 60.636719 79.3125 L 52.449219 76.582031 C 52.492188 75.808594 52.5 75.21875 52.5 75 C 52.5 74.78125 52.492188 74.191406 52.449219 73.417969 L 60.636719 70.6875 C 60.226562 72.054688 60 73.5 60 75 C 60 76.5 60.226562 77.945312 60.636719 79.3125 Z M 75 87.5 C 68.109375 87.5 62.5 81.890625 62.5 75 C 62.5 68.109375 68.109375 62.5 75 62.5 C 81.890625 62.5 87.5 68.109375 87.5 75 C 87.5 81.890625 81.890625 87.5 75 87.5 Z M 97.550781 76.582031 L 89.363281 79.3125 C 89.773438 77.945312 90 76.5 90 75 C 90 73.5 89.773438 72.054688 89.363281 70.6875 L 97.550781 73.417969 C 97.507812 74.191406 97.5 74.78125 97.5 75 C 97.5 75.21875 97.507812 75.808594 97.550781 76.582031 Z M 101.480469 81.824219 C 101.417969 81.917969 101.371094 82.015625 101.335938 82.121094 C 101.308594 82.175781 101.277344 82.242188 101.25 82.289062 C 101.226562 82.246094 101.195312 82.179688 101.167969 82.128906 C 101.128906 82.015625 101.082031 81.914062 101.015625 81.816406 C 100.535156 80.683594 100 78.359375 100 75 C 100 71.640625 100.535156 69.316406 101.015625 68.1875 C 101.078125 68.089844 101.128906 67.988281 101.164062 67.875 C 101.191406 67.824219 101.222656 67.757812 101.246094 67.710938 C 101.273438 67.753906 101.300781 67.816406 101.324219 67.863281 C 101.363281 67.984375 101.414062 68.09375 101.484375 68.195312 C 101.96875 69.324219 102.5 71.644531 102.5 75 C 102.5 78.371094 101.960938 80.699219 101.480469 81.824219 Z M 101.480469 81.824219 " fill-opacity="1" fill-rule="nonzero" data-darkreader-inline-fill="" style="--darkreader-inline-fill:#181a1b;"/></svg>