<svg xmlns="http://www.w3.org/2000/svg" width="56" height="56"><g fill="none" fill-rule="evenodd"><path fill="#fff" fill-rule="nonzero" d="M28 47c-8.284 0-15-6.716-15-15 0-8.284 6.716-15 15-15 8.284 0 15 6.716 15 15 0 8.284-6.716 15-15 15zm0-3c6.627 0 12-5.373 12-12s-5.373-12-12-12-12 5.373-12 12 5.373 12 12 12z"/><path fill="#fff" fill-rule="nonzero" d="M42.603 30.484a1.5 1.5 0 1 1-2.206 2.032C38.832 30.817 37.06 30 35 30c-2.043 0-3.994.976-5.903 3.023C26.653 35.643 23.937 37 21 37c-3.025 0-5.629-1.602-7.734-4.647a1.5 1.5 0 0 1 2.468-1.706C17.316 32.935 19.046 34 21 34c2.041 0 3.993-.976 5.903-3.023C29.345 28.357 32.06 27 35 27c2.921 0 5.484 1.183 7.603 3.484z"/><circle cx="36.5" cy="8.5" r="2.5" fill="#fff"/><circle cx="44.5" cy="8.5" r="2.5" fill="#fff"/><path fill="#fff" fill-rule="nonzero" d="M11 3a5 5 0 0 0-5 5v40a5 5 0 0 0 5 5h34a5 5 0 0 0 5-5V8a5 5 0 0 0-5-5H11zm0-3h34a8 8 0 0 1 8 8v40a8 8 0 0 1-8 8H11a8 8 0 0 1-8-8V8a8 8 0 0 1 8-8z"/><path d="M0 0h56v56H0z"/></g></svg>