<svg xmlns="http://www.w3.org/2000/svg" version="1.0" viewBox="45 61.24 60 27.75"><defs><clipPath id="a"><path d="M 45 61.238281 L 105 61.238281 L 105 88.988281 L 45 88.988281 Z M 45 61.238281"/></clipPath></defs><g clip-path="url(#a)"><path fill="#FFF" d="M 100.460938 82.382812 C 99.605469 82.453125 98.71875 82.523438 97.488281 82.59375 C 97.492188 82.039062 97.425781 81.488281 97.277344 80.960938 C 96.863281 79.503906 95.894531 78.351562 94.394531 77.539062 C 92.921875 76.738281 91.097656 76.617188 89.519531 77.214844 C 88.109375 77.746094 87.050781 78.789062 86.539062 80.148438 C 86.140625 81.207031 86.109375 82.34375 86.125 83.21875 C 86.125 83.222656 86.125 83.226562 86.125 83.230469 C 80.265625 82.847656 72.582031 82.800781 66.601562 83.109375 C 66.667969 82.382812 66.613281 81.648438 66.417969 80.960938 C 66.003906 79.503906 65.035156 78.351562 63.535156 77.539062 C 62.0625 76.738281 60.238281 76.617188 58.660156 77.214844 C 57.25 77.746094 56.191406 78.789062 55.679688 80.148438 C 55.285156 81.207031 55.25 82.34375 55.265625 83.21875 C 55.265625 83.277344 55.269531 83.339844 55.269531 83.398438 C 53.269531 83.363281 52.492188 83.324219 51.746094 83.289062 C 51.058594 83.257812 50.410156 83.230469 48.855469 83.203125 C 48.160156 83.1875 47.507812 83.148438 47.101562 82.800781 C 46.875 82.605469 46.703125 82.296875 46.554688 81.828125 C 46.074219 80.285156 46.257812 78.535156 46.417969 76.988281 C 46.464844 76.554688 46.515625 76.167969 46.65625 75.863281 C 46.664062 75.871094 46.667969 75.878906 46.679688 75.882812 C 46.890625 76.015625 47.074219 76.203125 47.210938 76.417969 L 47.230469 76.449219 C 47.320312 76.59375 47.453125 76.816406 47.726562 76.929688 C 47.84375 76.980469 47.960938 76.996094 48.066406 76.996094 C 48.230469 76.996094 48.371094 76.957031 48.460938 76.929688 L 51.027344 76.1875 C 51.296875 76.109375 51.460938 75.832031 51.398438 75.554688 C 51.304688 75.125 51.15625 74.710938 50.964844 74.316406 C 50.941406 74.273438 50.910156 74.234375 50.878906 74.199219 C 54.683594 73.179688 58.558594 72.382812 62.453125 71.816406 C 63.132812 71.769531 63.816406 71.742188 64.488281 71.734375 C 64.699219 71.730469 64.929688 71.75 65.171875 71.765625 C 65.644531 71.800781 66.132812 71.835938 66.609375 71.742188 C 67.855469 71.492188 68.761719 70.433594 69.5625 69.5 C 69.757812 69.273438 69.941406 69.058594 70.117188 68.871094 C 71.285156 67.625 72.457031 66.371094 73.597656 65.140625 C 73.835938 64.882812 74.160156 64.53125 74.285156 64.058594 C 74.355469 63.796875 74.351562 63.53125 74.347656 63.300781 C 74.335938 62.769531 74.375 62.753906 74.542969 62.699219 C 74.59375 62.679688 74.640625 62.652344 74.683594 62.621094 C 74.738281 62.621094 74.792969 62.617188 74.851562 62.617188 L 90.546875 62.347656 C 91.257812 62.335938 91.996094 62.324219 92.660156 62.511719 C 92.941406 62.59375 93.207031 62.710938 93.464844 62.847656 C 93.429688 62.886719 93.390625 62.925781 93.363281 62.957031 C 93.148438 63.179688 92.828125 63.507812 92.882812 64.003906 C 92.910156 64.253906 93.035156 64.445312 93.109375 64.558594 C 94.597656 66.894531 96.535156 68.386719 98.582031 69.96875 C 99.101562 70.367188 99.632812 70.777344 100.160156 71.203125 L 100.214844 71.25 C 100.699219 71.640625 101.242188 72.082031 101.925781 72.257812 C 102.09375 72.300781 102.273438 72.324219 102.453125 72.324219 C 102.796875 72.324219 103.152344 72.238281 103.460938 72.070312 C 103.511719 72.347656 103.546875 72.644531 103.574219 72.957031 C 102.839844 72.921875 102.199219 73.164062 101.804688 73.652344 C 101.335938 74.234375 101.335938 74.992188 101.398438 75.652344 C 101.453125 76.25 101.542969 76.847656 101.660156 77.433594 C 101.683594 77.550781 101.726562 77.773438 101.898438 77.957031 C 102.125 78.203125 102.4375 78.234375 102.574219 78.25 C 102.882812 78.28125 103.195312 78.296875 103.503906 78.296875 C 103.613281 78.296875 103.71875 78.292969 103.828125 78.289062 C 103.804688 79.480469 103.722656 80.703125 103.574219 82.164062 C 102.269531 82.238281 101.351562 82.3125 100.460938 82.382812 Z M 95.089844 86.125 C 94.042969 87.324219 92.484375 88.011719 91.023438 87.910156 C 89.503906 87.808594 88.070312 86.800781 87.539062 85.460938 C 87.25 84.734375 87.199219 83.910156 87.1875 83.199219 C 87.171875 82.421875 87.199219 81.414062 87.53125 80.527344 C 87.933594 79.460938 88.769531 78.640625 89.890625 78.21875 C 90.4375 78.011719 91.019531 77.910156 91.597656 77.910156 C 92.394531 77.910156 93.191406 78.101562 93.890625 78.480469 C 95.148438 79.160156 95.921875 80.070312 96.253906 81.253906 C 96.714844 82.871094 96.253906 84.785156 95.089844 86.125 Z M 64.230469 86.125 C 63.183594 87.324219 61.628906 88.011719 60.167969 87.910156 C 58.644531 87.808594 57.210938 86.800781 56.679688 85.460938 C 56.390625 84.734375 56.339844 83.910156 56.328125 83.199219 C 56.3125 82.421875 56.339844 81.414062 56.671875 80.527344 C 57.074219 79.460938 57.914062 78.640625 59.035156 78.21875 C 59.578125 78.011719 60.160156 77.910156 60.738281 77.910156 C 61.539062 77.910156 62.332031 78.101562 63.035156 78.480469 C 64.289062 79.160156 65.0625 80.070312 65.398438 81.253906 C 65.855469 82.871094 65.398438 84.785156 64.230469 86.125 Z M 48.039062 74.996094 C 48.679688 74.804688 49.324219 74.617188 49.972656 74.441406 C 49.945312 74.554688 49.957031 74.679688 50.011719 74.796875 C 50.09375 74.960938 50.164062 75.132812 50.226562 75.304688 L 48.167969 75.898438 C 48.164062 75.902344 48.15625 75.902344 48.144531 75.90625 C 48.140625 75.898438 48.136719 75.890625 48.132812 75.882812 L 48.109375 75.847656 C 47.949219 75.589844 47.746094 75.359375 47.511719 75.167969 C 47.671875 75.105469 47.851562 75.050781 48.039062 74.996094 Z M 68.386719 67.695312 C 69.480469 66.480469 70.609375 65.226562 71.746094 64.066406 C 72.199219 63.601562 72.707031 63.085938 73.300781 62.835938 C 73.28125 63.011719 73.28125 63.175781 73.285156 63.316406 C 73.289062 63.496094 73.289062 63.664062 73.261719 63.785156 C 73.203125 63.996094 73 64.214844 72.820312 64.410156 C 71.683594 65.636719 70.511719 66.890625 69.34375 68.136719 C 69.152344 68.339844 68.960938 68.566406 68.757812 68.800781 C 68.070312 69.605469 67.292969 70.515625 66.402344 70.691406 C 66.164062 70.738281 65.894531 70.738281 65.609375 70.722656 C 66.550781 69.730469 67.480469 68.699219 68.386719 67.695312 Z M 101.648438 69.511719 C 102.191406 69.964844 102.75 70.4375 103.089844 71.019531 C 102.898438 71.234375 102.5 71.300781 102.1875 71.21875 C 101.730469 71.101562 101.316406 70.769531 100.882812 70.414062 L 100.824219 70.371094 C 100.289062 69.9375 99.75 69.519531 99.230469 69.117188 C 97.253906 67.59375 95.390625 66.15625 94 63.980469 C 93.988281 63.960938 93.964844 63.921875 93.949219 63.898438 C 93.984375 63.847656 94.0625 63.765625 94.121094 63.710938 C 94.195312 63.628906 94.285156 63.539062 94.363281 63.433594 C 94.65625 63.65625 94.941406 63.894531 95.222656 64.128906 Z M 103.671875 74.035156 C 103.769531 75.199219 103.820312 76.21875 103.832031 77.21875 C 103.824219 77.21875 103.816406 77.21875 103.808594 77.21875 C 103.4375 77.230469 103.0625 77.222656 102.691406 77.183594 C 102.585938 76.648438 102.507812 76.097656 102.457031 75.550781 C 102.414062 75.105469 102.402344 74.609375 102.628906 74.324219 C 102.855469 74.046875 103.296875 73.992188 103.671875 74.035156 Z M 104.632812 72.863281 C 104.5625 72.132812 104.472656 71.421875 104.15625 70.757812 C 103.734375 69.867188 102.984375 69.242188 102.328125 68.6875 L 95.902344 63.304688 C 95.066406 62.605469 94.121094 61.816406 92.949219 61.480469 C 92.136719 61.25 91.28125 61.265625 90.527344 61.277344 L 74.832031 61.546875 C 74.289062 61.554688 73.671875 61.566406 73.078125 61.769531 C 72.199219 62.074219 71.527344 62.761719 70.988281 63.3125 C 69.839844 64.488281 68.699219 65.753906 67.597656 66.976562 C 66.546875 68.144531 65.460938 69.351562 64.371094 70.476562 C 63.695312 70.558594 63.015625 70.652344 62.34375 70.75 C 62.257812 70.753906 62.175781 70.757812 62.089844 70.761719 C 62.019531 70.769531 61.957031 70.789062 61.894531 70.816406 C 57.113281 71.53125 52.363281 72.585938 47.738281 73.96875 C 47.078125 74.164062 46.445312 74.386719 45.996094 74.925781 C 45.503906 75.519531 45.421875 76.304688 45.363281 76.875 C 45.191406 78.527344 44.996094 80.394531 45.542969 82.148438 C 45.671875 82.570312 45.90625 83.183594 46.414062 83.617188 C 47.140625 84.242188 48.160156 84.261719 48.835938 84.273438 C 50.375 84.300781 51.015625 84.328125 51.695312 84.359375 C 52.429688 84.394531 53.253906 84.433594 55.351562 84.472656 C 55.410156 84.933594 55.515625 85.402344 55.695312 85.859375 C 56.382812 87.59375 58.152344 88.851562 60.097656 88.980469 C 60.210938 88.988281 60.324219 88.992188 60.441406 88.992188 C 62.121094 88.992188 63.847656 88.183594 65.027344 86.832031 C 65.691406 86.070312 66.15625 85.15625 66.410156 84.191406 C 72.429688 83.867188 80.269531 83.914062 86.1875 84.308594 C 86.246094 84.820312 86.351562 85.347656 86.554688 85.859375 C 87.242188 87.59375 89.007812 88.851562 90.953125 88.980469 C 91.070312 88.988281 91.183594 88.992188 91.300781 88.992188 C 92.976562 88.992188 94.707031 88.183594 95.886719 86.832031 C 96.667969 85.933594 97.179688 84.820312 97.386719 83.671875 C 98.714844 83.597656 99.644531 83.523438 100.546875 83.449219 C 101.53125 83.371094 102.546875 83.289062 104.085938 83.207031 C 104.34375 83.195312 104.558594 82.992188 104.585938 82.730469 C 104.988281 78.878906 105 76.667969 104.632812 72.863281" data-darkreader-inline-fill="" style="--darkreader-inline-fill:#181a1b;"/></g><path fill="#FFF" d="M 83.253906 69.886719 C 79.328125 70.226562 75.355469 70.472656 71.410156 70.628906 C 73.117188 69.195312 74.789062 67.632812 76.585938 65.796875 C 77.167969 65.207031 77.773438 64.925781 78.675781 64.832031 C 79.027344 64.796875 82.007812 64.703125 83.148438 64.683594 C 83.289062 66.410156 83.324219 68.15625 83.253906 69.886719 Z M 84.164062 64.105469 C 84.148438 63.964844 84.078125 63.832031 83.96875 63.742188 C 83.777344 63.582031 83.777344 63.582031 81.242188 63.660156 C 80.304688 63.6875 78.820312 63.742188 78.5625 63.769531 C 77.425781 63.886719 76.582031 64.28125 75.832031 65.046875 C 73.632812 67.289062 71.625 69.117188 69.515625 70.800781 C 69.339844 70.945312 69.269531 71.1875 69.347656 71.40625 C 69.425781 71.617188 69.625 71.753906 69.847656 71.753906 C 69.851562 71.753906 69.859375 71.753906 69.863281 71.753906 C 74.5 71.601562 79.191406 71.320312 83.808594 70.914062 C 84.074219 70.890625 84.28125 70.675781 84.292969 70.410156 C 84.402344 68.3125 84.359375 66.195312 84.164062 64.105469" data-darkreader-inline-fill="" style="--darkreader-inline-fill:#181a1b;"/><path fill="#FFF" d="M 93.910156 69.449219 C 93.792969 69.453125 93.6875 69.457031 93.585938 69.472656 C 93.308594 69.515625 93.007812 69.542969 92.613281 69.5625 C 92.308594 69.578125 91.996094 69.585938 91.691406 69.589844 C 91.328125 69.597656 90.957031 69.605469 90.585938 69.628906 C 90.449219 69.636719 89.835938 69.660156 89.097656 69.691406 C 88.398438 69.722656 87.589844 69.757812 86.957031 69.785156 C 86.757812 69.796875 86.578125 69.804688 86.425781 69.8125 C 86.4375 69.285156 86.46875 68.75 86.496094 68.230469 C 86.515625 67.863281 86.535156 67.496094 86.550781 67.128906 C 86.5625 66.828125 86.566406 66.523438 86.570312 66.21875 L 86.574219 65.972656 C 86.578125 65.496094 86.589844 64.996094 86.65625 64.503906 C 86.695312 64.503906 86.726562 64.5 86.738281 64.5 C 87.300781 64.464844 87.882812 64.464844 88.445312 64.464844 C 89.070312 64.464844 89.714844 64.464844 90.359375 64.414062 C 90.628906 64.394531 90.667969 64.390625 90.851562 64.789062 C 91.34375 65.863281 92.15625 66.824219 92.878906 67.683594 C 92.976562 67.792969 93.089844 67.917969 93.214844 68.050781 C 93.5625 68.429688 94.136719 69.042969 94.148438 69.433594 C 94.074219 69.441406 93.976562 69.445312 93.910156 69.449219 Z M 93.679688 66.976562 C 92.972656 66.140625 92.246094 65.28125 91.816406 64.34375 C 91.578125 63.824219 91.242188 63.273438 90.277344 63.347656 C 89.675781 63.394531 89.050781 63.390625 88.445312 63.394531 C 87.867188 63.390625 87.265625 63.390625 86.679688 63.429688 C 86.65625 63.433594 86.609375 63.433594 86.550781 63.433594 C 86.152344 63.433594 85.773438 63.4375 85.6875 63.871094 C 85.539062 64.582031 85.519531 65.292969 85.511719 65.957031 L 85.507812 66.207031 C 85.503906 66.5 85.503906 66.792969 85.488281 67.085938 C 85.476562 67.445312 85.453125 67.808594 85.433594 68.167969 C 85.394531 68.894531 85.355469 69.640625 85.355469 70.382812 C 85.355469 70.675781 85.585938 70.914062 85.875 70.917969 C 85.878906 70.917969 85.882812 70.917969 85.886719 70.917969 C 85.917969 70.917969 85.949219 70.914062 85.980469 70.910156 C 86.242188 70.886719 88.050781 70.808594 89.140625 70.761719 C 89.890625 70.730469 90.511719 70.703125 90.648438 70.695312 C 91 70.675781 91.359375 70.667969 91.710938 70.660156 C 92.023438 70.65625 92.347656 70.648438 92.667969 70.632812 C 93.097656 70.609375 93.429688 70.582031 93.746094 70.53125 C 93.789062 70.523438 93.871094 70.523438 93.953125 70.519531 C 94.203125 70.507812 94.488281 70.496094 94.722656 70.367188 C 94.984375 70.222656 95.164062 69.9375 95.203125 69.609375 C 95.304688 68.738281 94.574219 67.953125 93.992188 67.320312 C 93.878906 67.199219 93.773438 67.085938 93.679688 66.976562" data-darkreader-inline-fill="" style="--darkreader-inline-fill:#181a1b;"/></svg>