<svg xmlns="http://www.w3.org/2000/svg" xmlns:xlink="http://www.w3.org/1999/xlink" contentScriptType="text/ecmascript" zoomAndPan="magnify" contentStyleType="text/css" preserveAspectRatio="xMidYMid meet" version="1.0" viewBox="146.09 89.38 124.91 119.18"><defs><clipPath id="clip-0"><path d="M 146.09375 89.378906 L 271 89.378906 L 271 208.558594 L 146.09375 208.558594 Z M 146.09375 89.378906 " clip-rule="nonzero"/></clipPath></defs><g clip-path="url(#clip-0)"><path fill="rgb(100%, 100%, 100%)" d="M 249.769531 90.136719 C 248.867188 89.382812 247.550781 89.40625 246.648438 90.164062 C 242.289062 93.835938 235.640625 106.417969 231.183594 119.414062 C 227.84375 129.148438 222.898438 147.445312 227.261719 160.683594 C 230.109375 169.273438 236.492188 174.410156 245.796875 175.625 L 245.796875 203.636719 L 213.230469 203.636719 L 213.230469 191.492188 L 220.050781 191.492188 C 221.414062 191.492188 222.511719 190.398438 222.511719 189.035156 L 222.511719 181.589844 C 222.511719 180.226562 221.414062 179.132812 220.050781 179.132812 L 213.230469 179.132812 L 213.230469 174.433594 L 220.050781 174.433594 C 221.414062 174.433594 222.511719 173.339844 222.511719 171.976562 L 222.511719 148.519531 C 222.511719 147.15625 221.414062 146.058594 220.050781 146.058594 L 213.230469 146.058594 L 213.230469 138.855469 C 213.230469 137.492188 212.132812 136.398438 210.769531 136.398438 L 202.828125 136.398438 C 201.464844 136.398438 200.367188 137.492188 200.367188 138.855469 L 200.367188 146.058594 L 168.214844 146.058594 L 168.214844 138.855469 C 168.214844 137.492188 167.117188 136.398438 165.753906 136.398438 L 157.835938 136.398438 C 156.472656 136.398438 155.375 137.492188 155.375 138.855469 L 155.375 146.058594 L 148.554688 146.058594 C 147.191406 146.058594 146.09375 147.15625 146.09375 148.519531 L 146.09375 171.976562 C 146.09375 173.339844 147.191406 174.433594 148.554688 174.433594 L 155.375 174.433594 L 155.375 179.132812 L 148.554688 179.132812 C 147.191406 179.132812 146.09375 180.226562 146.09375 181.589844 L 146.09375 189.035156 C 146.09375 190.398438 147.191406 191.492188 148.554688 191.492188 L 155.375 191.492188 L 155.375 203.636719 L 148.554688 203.636719 C 147.191406 203.636719 146.09375 204.730469 146.09375 206.09375 C 146.09375 207.457031 147.191406 208.550781 148.554688 208.550781 L 267.914062 208.550781 C 269.28125 208.550781 270.375 207.457031 270.375 206.09375 C 270.375 204.730469 269.28125 203.636719 267.914062 203.636719 L 250.667969 203.636719 L 250.667969 175.699219 C 259.78125 174.824219 266.113281 169.980469 268.988281 161.609375 C 273.519531 148.492188 268.671875 129.902344 265.359375 119.972656 C 260.828125 106.371094 254.273438 93.8125 249.769531 90.136719 Z M 208.332031 203.636719 L 205.289062 203.636719 L 205.289062 191.492188 L 208.332031 191.492188 Z M 200.390625 191.46875 L 200.390625 203.613281 L 168.214844 203.613281 L 168.214844 191.46875 Z M 208.332031 179.15625 L 205.289062 179.15625 L 205.289062 174.457031 L 208.332031 174.457031 Z M 168.214844 179.15625 L 168.214844 174.457031 L 200.390625 174.457031 L 200.390625 179.15625 Z M 205.289062 141.363281 L 208.332031 141.363281 L 208.332031 146.109375 L 205.289062 146.109375 Z M 160.273438 141.363281 L 163.316406 141.363281 L 163.316406 146.109375 L 160.273438 146.109375 Z M 151.015625 151 L 217.589844 151 L 217.589844 157.839844 L 151.015625 157.839844 Z M 151.015625 162.730469 L 217.589844 162.730469 L 217.589844 169.566406 L 211.132812 169.566406 C 211.011719 169.542969 210.914062 169.542969 210.792969 169.542969 C 210.671875 169.542969 210.550781 169.542969 210.453125 169.566406 L 203.21875 169.566406 C 203.09375 169.542969 203 169.542969 202.875 169.542969 C 202.753906 169.542969 202.632812 169.542969 202.535156 169.566406 L 166.117188 169.566406 C 165.996094 169.542969 165.898438 169.542969 165.777344 169.542969 C 165.65625 169.542969 165.535156 169.542969 165.4375 169.566406 L 158.175781 169.566406 C 158.054688 169.542969 157.957031 169.542969 157.835938 169.542969 C 157.714844 169.542969 157.59375 169.542969 157.496094 169.566406 L 151.015625 169.566406 Z M 160.273438 174.433594 L 163.316406 174.433594 L 163.316406 179.132812 L 160.273438 179.132812 Z M 151.015625 184.046875 L 217.589844 184.046875 L 217.589844 186.601562 L 151.015625 186.601562 Z M 160.273438 191.46875 L 163.316406 191.46875 L 163.316406 203.613281 L 160.273438 203.613281 Z M 264.359375 160.027344 C 262.140625 166.453125 257.636719 170.003906 250.667969 170.785156 L 250.667969 145.453125 L 259 137.542969 C 259.972656 136.617188 260.023438 135.058594 259.097656 134.085938 C 258.171875 133.113281 256.613281 133.066406 255.636719 133.988281 L 250.695312 138.6875 L 250.695312 116.347656 C 250.695312 114.984375 249.597656 113.890625 248.234375 113.890625 C 246.871094 113.890625 245.773438 114.984375 245.773438 116.347656 L 245.773438 131.679688 L 240.828125 126.980469 C 239.855469 126.054688 238.292969 126.082031 237.367188 127.078125 C 236.445312 128.050781 236.46875 129.609375 237.464844 130.535156 L 245.796875 138.441406 L 245.796875 150.34375 L 240.851562 145.644531 C 239.878906 144.722656 238.320312 144.746094 237.394531 145.742188 C 236.46875 146.71875 236.492188 148.273438 237.492188 149.199219 L 245.820312 157.109375 L 245.820312 170.710938 C 238.683594 169.617188 234.152344 165.820312 231.9375 159.175781 C 228.015625 147.300781 232.691406 130.195312 235.835938 121.042969 C 239.730469 109.679688 244.871094 99.894531 248.28125 95.613281 C 251.691406 99.894531 256.855469 109.847656 260.753906 121.578125 C 263.824219 130.875 268.425781 148.273438 264.359375 160.027344 Z M 264.359375 160.027344 " fill-opacity="1" fill-rule="nonzero" data-darkreader-inline-fill="" style="--darkreader-inline-fill:#181a1b;"/></g></svg>