<svg xmlns="http://www.w3.org/2000/svg" version="1.0" viewBox="45 47.02 59.98 56.25"><defs><clipPath id="a"><path d="M 61 47.023438 L 68 47.023438 L 68 60 L 61 60 Z M 61 47.023438"/></clipPath><clipPath id="b"><path d="M 45 47.023438 L 99 47.023438 L 99 94 L 45 94 Z M 45 47.023438"/></clipPath><clipPath id="c"><path d="M 82.609375 101.390625 L 100.125 101.390625 L 100.125 103.269531 L 82.609375 103.269531 Z M 82.609375 101.390625"/></clipPath><clipPath id="d"><path d="M 95.398438 96.105469 L 104.980469 96.105469 L 104.980469 98.042969 L 95.398438 98.042969 Z M 95.398438 96.105469"/></clipPath></defs><g clip-path="url(#a)"><path fill="#FFF" d="M 62.21875 49.121094 C 63.753906 49.164062 65.023438 50.117188 65.484375 51.589844 C 65.699219 52.285156 65.613281 53.109375 65.613281 53.832031 C 65.613281 55.578125 65.613281 57.324219 65.613281 59.074219 C 65.613281 60.207031 67.367188 60.207031 67.367188 59.074219 C 67.367188 57.113281 67.367188 55.152344 67.367188 53.191406 C 67.367188 52.007812 67.226562 50.914062 66.625 49.859375 C 65.726562 48.285156 63.984375 47.410156 62.21875 47.363281 C 61.089844 47.328125 61.09375 49.089844 62.21875 49.121094" data-darkreader-inline-fill="" style="--darkreader-inline-fill:#e8e6e3;"/></g><path fill="#FFF" d="M 65.613281 64.390625 C 65.613281 67.410156 65.613281 70.429688 65.613281 73.449219 C 65.613281 74.585938 67.367188 74.585938 67.367188 73.449219 C 67.367188 70.429688 67.367188 67.410156 67.367188 64.390625 C 67.367188 63.253906 65.613281 63.253906 65.613281 64.390625" data-darkreader-inline-fill="" style="--darkreader-inline-fill:#e8e6e3;"/><path fill="#FFF" d="M 73.351562 63.601562 C 73.351562 60.582031 73.351562 57.5625 73.351562 54.542969 C 73.351562 53.410156 71.601562 53.410156 71.601562 54.542969 C 71.601562 57.5625 71.601562 60.582031 71.601562 63.601562 C 71.601562 64.738281 73.351562 64.738281 73.351562 63.601562" data-darkreader-inline-fill="" style="--darkreader-inline-fill:#e8e6e3;"/><g clip-path="url(#b)"><path fill="#FFF" d="M 62.707031 84.867188 C 62.425781 82.808594 63.820312 81.023438 65.777344 80.566406 C 67.84375 80.089844 69.761719 81.625 70.230469 83.582031 C 70.457031 84.515625 71.617188 84.316406 71.921875 83.582031 C 72.472656 82.246094 73.898438 81.585938 75.269531 81.902344 C 76.773438 82.25 77.613281 83.832031 77.328125 85.289062 C 77.195312 85.953125 77.941406 86.800781 78.613281 86.285156 C 80.203125 85.0625 82.496094 85.476562 83.222656 87.460938 C 83.910156 89.335938 82.429688 91.210938 80.535156 91.269531 C 79.410156 91.308594 79.40625 93.070312 80.535156 93.03125 C 80.757812 93.023438 80.96875 93.003906 81.179688 92.96875 C 81.277344 93.007812 81.390625 93.03125 81.519531 93.03125 C 86.746094 93.03125 91.96875 93.03125 97.195312 93.03125 C 98.328125 93.03125 98.328125 91.269531 97.195312 91.269531 C 92.828125 91.269531 88.460938 91.269531 84.09375 91.269531 C 84.949219 90.195312 85.324219 88.738281 84.980469 87.21875 C 84.453125 84.925781 82.246094 83.679688 80.117188 83.855469 C 80.117188 75.097656 80.117188 66.339844 80.117188 57.582031 C 80.117188 56.019531 80.117188 54.460938 80.117188 52.898438 C 80.117188 49.894531 78.050781 47.449219 74.972656 47.363281 C 73.84375 47.328125 73.847656 49.089844 74.972656 49.121094 C 76.828125 49.175781 78.367188 50.636719 78.367188 52.539062 C 78.367188 52.835938 78.367188 53.132812 78.367188 53.429688 C 78.367188 55.230469 78.367188 57.027344 78.367188 58.832031 C 78.367188 64.40625 78.367188 69.984375 78.367188 75.5625 C 78.367188 77.761719 78.367188 79.960938 78.367188 82.15625 C 77.824219 81.324219 77.003906 80.660156 75.960938 80.273438 C 75.074219 79.941406 74.175781 79.949219 73.351562 80.203125 C 73.351562 76.585938 73.351562 72.96875 73.351562 69.347656 C 73.351562 68.214844 71.601562 68.214844 71.601562 69.347656 C 71.601562 73.15625 71.601562 76.960938 71.601562 80.769531 C 71.601562 80.910156 71.625 81.03125 71.671875 81.136719 C 71.535156 81.253906 71.402344 81.378906 71.273438 81.511719 C 70.078125 79.496094 67.738281 78.433594 65.3125 78.871094 C 62.800781 79.320312 61.21875 81.53125 60.992188 83.917969 C 60.789062 83.882812 60.585938 83.859375 60.386719 83.851562 C 60.386719 75.171875 60.386719 66.496094 60.386719 57.816406 C 60.386719 56.308594 60.386719 54.804688 60.386719 53.300781 C 60.386719 51.378906 59.921875 49.5625 58.277344 48.363281 C 56.445312 47.027344 54.042969 47.363281 51.90625 47.363281 C 49.984375 47.363281 48.066406 47.363281 46.148438 47.363281 C 45.019531 47.363281 45.019531 49.121094 46.148438 49.121094 C 48.289062 49.121094 50.425781 49.121094 52.566406 49.121094 C 53.445312 49.121094 54.320312 49.121094 55.199219 49.121094 C 56.992188 49.121094 58.476562 50.496094 58.628906 52.292969 C 58.710938 53.277344 58.632812 54.296875 58.632812 55.285156 C 58.632812 57.582031 58.632812 59.882812 58.632812 62.183594 C 58.632812 69.488281 58.632812 76.796875 58.632812 84.105469 C 56.917969 84.703125 55.601562 86.289062 55.535156 88.410156 C 55.5 89.546875 57.25 89.542969 57.285156 88.410156 C 57.355469 86.292969 59.492188 84.9375 61.421875 85.863281 C 62.164062 86.21875 62.8125 85.640625 62.707031 84.867188" data-darkreader-inline-fill="" style="--darkreader-inline-fill:#181a1b;"/></g><path fill="#FFF" d="M 67.023438 90.722656 C 66.917969 93.273438 63.203125 93.273438 63.097656 90.722656 C 63.046875 89.59375 61.296875 89.589844 61.34375 90.722656 C 61.433594 92.820312 62.976562 94.371094 65.0625 94.460938 C 67.140625 94.550781 68.691406 92.683594 68.777344 90.722656 C 68.824219 89.589844 67.070312 89.59375 67.023438 90.722656" data-darkreader-inline-fill="" style="--darkreader-inline-fill:#e8e6e3;"/><path fill="#FFF" d="M 91.355469 98.035156 C 92.484375 98.035156 92.484375 96.273438 91.355469 96.273438 C 86.300781 96.273438 81.246094 96.273438 76.191406 96.273438 C 76.214844 95.160156 74.488281 95.171875 74.4375 96.296875 C 74.332031 98.84375 70.621094 98.84375 70.511719 96.296875 C 70.464844 95.164062 68.710938 95.160156 68.761719 96.296875 C 68.847656 98.390625 70.390625 99.941406 72.476562 100.03125 C 73.914062 100.089844 75.097656 99.222656 75.71875 98.035156 C 80.929688 98.035156 86.144531 98.035156 91.355469 98.035156" data-darkreader-inline-fill="" style="--darkreader-inline-fill:#181a1b;"/><g clip-path="url(#c)"><path fill="#FFF" d="M 99.195312 101.511719 C 93.96875 101.511719 88.742188 101.511719 83.515625 101.511719 C 82.386719 101.511719 82.386719 103.269531 83.515625 103.269531 C 88.742188 103.269531 93.96875 103.269531 99.195312 103.269531 C 100.324219 103.269531 100.324219 101.511719 99.195312 101.511719" data-darkreader-inline-fill="" style="--darkreader-inline-fill:#e8e6e3;"/></g><g clip-path="url(#d)"><path fill="#FFF" d="M 104.132812 96.273438 C 101.519531 96.273438 98.90625 96.273438 96.292969 96.273438 C 95.164062 96.273438 95.164062 98.035156 96.292969 98.035156 C 98.90625 98.035156 101.519531 98.035156 104.132812 98.035156 C 105.261719 98.035156 105.261719 96.273438 104.132812 96.273438" data-darkreader-inline-fill="" style="--darkreader-inline-fill:#e8e6e3;"/></g></svg>