<svg xmlns="http://www.w3.org/2000/svg" xmlns:xlink="http://www.w3.org/1999/xlink" contentScriptType="text/ecmascript" zoomAndPan="magnify" contentStyleType="text/css" preserveAspectRatio="xMidYMid meet" version="1.0" viewBox="45 55.29 60 39.64"><defs><clipPath id="clip-0"><path d="M 45 55.292969 L 105 55.292969 L 105 94.933594 L 45 94.933594 Z M 45 55.292969 " clip-rule="nonzero"/></clipPath></defs><g clip-path="url(#clip-0)"><path fill="rgb(100%, 100%, 100%)" d="M 97.128906 56.640625 C 99.480469 56.671875 101.738281 57.542969 103.519531 59.089844 C 103.714844 59.273438 103.730469 59.582031 103.550781 59.785156 C 103.523438 59.8125 103.496094 59.839844 103.464844 59.863281 C 100.957031 61.898438 98.1875 63.589844 95.234375 64.894531 L 87.160156 68.554688 C 86.949219 68.648438 86.773438 68.824219 86.671875 69.046875 L 76.964844 90.414062 C 76.042969 91.851562 74.679688 92.945312 73.078125 93.523438 L 76.25 75.203125 C 76.347656 74.660156 75.992188 74.148438 75.453125 74.050781 C 75.261719 74.019531 75.058594 74.046875 74.878906 74.125 L 66.53125 77.914062 C 62.171875 79.890625 57.421875 80.835938 52.644531 80.671875 C 51.929688 80.652344 51.289062 80.234375 50.980469 79.585938 L 46.402344 69.945312 C 46.242188 69.613281 46.378906 69.210938 46.710938 69.050781 C 46.917969 68.953125 47.164062 68.964844 47.355469 69.089844 L 54.941406 73.878906 C 55.429688 74.191406 56.042969 74.234375 56.574219 73.992188 L 68.597656 68.535156 C 69.09375 68.3125 69.3125 67.726562 69.085938 67.230469 C 69.011719 67.050781 68.878906 66.902344 68.71875 66.800781 L 58.15625 60.050781 C 59.871094 59.144531 61.84375 58.859375 63.738281 59.257812 L 77.886719 64.03125 C 78.121094 64.109375 78.382812 64.101562 78.613281 64 L 92.871094 57.527344 C 94.203125 56.925781 95.652344 56.621094 97.109375 56.640625 Z M 97.128906 55.300781 C 95.476562 55.273438 93.828125 55.617188 92.324219 56.304688 L 78.183594 62.71875 L 64.089844 57.960938 C 61.777344 57.457031 59.367188 57.820312 57.304688 58.984375 C 56.730469 59.308594 56.523438 60.042969 56.847656 60.621094 C 56.941406 60.800781 57.082031 60.945312 57.246094 61.054688 L 67.457031 67.582031 L 56.027344 72.769531 C 55.902344 72.824219 55.765625 72.816406 55.648438 72.742188 L 48.066406 67.953125 C 47.128906 67.363281 45.894531 67.648438 45.308594 68.585938 C 44.941406 69.167969 44.898438 69.902344 45.195312 70.523438 L 49.785156 80.164062 C 50.300781 81.261719 51.386719 81.976562 52.597656 82.019531 C 57.578125 82.183594 62.53125 81.199219 67.074219 79.140625 L 74.824219 75.621094 L 71.71875 93.523438 C 71.605469 94.175781 72.042969 94.804688 72.695312 94.914062 C 72.890625 94.949219 73.085938 94.9375 73.273438 94.871094 C 75.292969 94.207031 77.007812 92.859375 78.136719 91.058594 L 87.828125 69.722656 L 95.773438 66.121094 C 98.828125 64.769531 101.691406 63.023438 104.285156 60.917969 C 105.085938 60.300781 105.234375 59.148438 104.621094 58.34375 C 104.546875 58.25 104.460938 58.15625 104.371094 58.078125 C 102.359375 56.320312 99.789062 55.339844 97.121094 55.300781 L 97.128906 55.300781 " fill-opacity="1" fill-rule="nonzero" data-darkreader-inline-fill="" style="--darkreader-inline-fill:#181a1b;"/></g></svg>